<svg width="107" height="32" viewBox="0 0 107 32" fill="none" xmlns="http://www.w3.org/2000/svg">
    <path fill-rule="evenodd" clip-rule="evenodd"
          d="M57.9446 24.714C56.7495 24.714 55.7799 23.7443 55.7799 22.5492V15.9649V7.98243C55.7573 3.58533 52.1946 0 47.7749 0H45.1818V7.1932H46.67C47.8651 7.1932 48.8347 8.16282 48.8347 9.35793V15.9423V23.9022C48.8347 28.3218 52.4201 31.8846 56.8172 31.8846H59.4103V24.6914H57.9446V24.714ZM72.1958 24.714C71.0007 24.714 70.0311 23.7443 70.0311 22.5492V15.9649V7.98243C70.0311 3.56278 66.4457 0 62.0486 0H59.4555V7.1932H60.9437C62.1388 7.1932 63.1085 8.16282 63.1085 9.35793V15.9423V23.9022C63.1085 28.3218 66.6938 31.8846 71.0909 31.8846H73.6841V24.6914H72.1958V24.714ZM73.6841 19.911C73.6841 13.3491 79.0057 8.02752 85.5675 8.02752C92.1293 8.02752 97.451 13.3491 97.451 19.911C97.451 26.4728 92.1293 31.7944 85.5675 31.7944C79.0057 31.7944 73.6841 26.4728 73.6841 19.911ZM79.9753 19.911C79.9753 23.0002 82.4783 25.5032 85.5675 25.5032C88.6567 25.5032 91.1597 23.0002 91.1597 19.911C91.1597 16.8217 88.6567 14.3188 85.5675 14.3188C82.4783 14.3188 79.9753 16.8217 79.9753 19.911ZM105.952 28.4346C105.952 30.3062 104.419 31.8395 102.547 31.8395C100.675 31.8395 99.1421 30.3062 99.1421 28.4346C99.1421 26.563 100.675 25.0296 102.547 25.0296C104.441 25.0296 105.952 26.5404 105.952 28.4346ZM99.548 1.73629V0H105.772V1.73629V23.5188H99.548V1.73629ZM1.32356 27.8258L4.34516 22.91C6.98342 24.6689 9.89227 25.5483 12.2825 25.5483C13.6805 25.5483 14.8306 25.1198 14.8306 24.2179C14.8306 23.3473 13.1711 22.9179 10.8659 22.3213L10.6138 22.2561C6.0589 21.0384 2.42847 19.5502 2.42847 14.8148C2.42847 9.89912 6.35204 7.17066 11.6962 7.17066C15.0786 7.17066 18.5737 8.16283 21.212 9.85402L18.4384 14.9727C16.0482 13.6648 13.455 12.8531 11.606 12.8531C10.3658 12.8531 9.73442 13.3266 9.73442 14.0482C9.73442 14.9501 11.0648 15.3786 13.5001 16.1002C18.0776 17.4306 21.7081 18.9639 21.7081 23.5189C21.7081 28.5924 17.8972 31.2532 12.2825 31.2532C8.35892 31.2532 4.52555 30.1483 1.32356 27.8258ZM34.5837 8.00499C41.1455 8.00499 46.4671 13.3266 46.4671 19.8884V20.0012V21.4894H29.5101C30.0738 23.6767 32.1033 25.2101 34.8994 25.2101C36.6808 25.2101 37.6955 24.7365 38.6425 24.1051L45.4524 26.0669C43.7161 29.1787 40.2661 31.7719 34.8092 31.7719C28.0444 31.7719 22.7002 26.5856 22.7002 19.8884C22.7002 13.3266 28.0218 8.00499 34.5837 8.00499ZM39.6798 18.3325C39.0259 16.1453 36.9964 14.5668 34.5837 14.5668C32.1935 14.5668 30.164 16.1453 29.4875 18.3325H39.6798Z"
          fill="white"/>
</svg>
