<svg width="201" height="200" viewBox="0 0 201 200" fill="none" xmlns="http://www.w3.org/2000/svg">
    <circle cx="100.5" cy="100" r="100" fill="#00B3A8" fill-opacity="0.05"/>
    <circle cx="100.497" cy="100" r="85.8491" fill="#00B3A8" fill-opacity="0.05"/>
    <circle cx="100.497" cy="100" r="74.5283" fill="#00B3A8" fill-opacity="0.1"/>
    <path d="M2.01009 120.079L3.06493 120.353C6.34495 121.206 9.8318 120.274 12.2492 117.899V117.899C14.6049 115.584 18.0197 114.645 21.2358 115.395V115.395C24.5004 116.156 27.9952 115.175 30.3863 112.825V112.825C32.742 110.511 36.1465 109.535 39.3626 110.285V110.285C42.6631 111.055 46.1254 110.035 48.4821 107.6L49.24 106.817"
          stroke="#F0CE60" stroke-width="2.83019" stroke-linecap="round" stroke-linejoin="round"/>
    <path d="M144.01 129.079L145.065 129.353C148.345 130.206 151.832 129.274 154.249 126.899V126.899C156.605 124.584 160.02 123.645 163.236 124.395V124.395C166.5 125.156 169.995 124.175 172.386 121.825V121.825C174.742 119.511 178.146 118.535 181.363 119.285V119.285C184.663 120.055 188.125 119.035 190.482 116.6L191.24 115.817"
          stroke="#00B3A8" stroke-width="2.83019" stroke-linecap="round" stroke-linejoin="round"/>
    <path d="M14.6887 77V87.3774M9.5 82.1887H19.8774" stroke="#3C55F0" stroke-width="2.83019" stroke-linecap="round"
          stroke-linejoin="round"/>
    <path d="M73.3325 39.4978L80.328 47.1628M72.9978 46.8281L80.6627 39.8325" stroke="#3C55F0" stroke-width="2.83019"
          stroke-linecap="round" stroke-linejoin="round"/>
    <path d="M129 174.5L122.545 182.625M121.728 175.518L129.853 181.974" stroke="#3C55F0" stroke-width="2.83019"
          stroke-linecap="round" stroke-linejoin="round"/>
    <path d="M140.836 93.8502L146.536 102.522M139.35 101.036L148.022 95.3361" stroke="#3C55F0" stroke-width="2.83019"
          stroke-linecap="round" stroke-linejoin="round"/>
    <circle cx="33.217" cy="47.717" r="4.24528" stroke="#F0CE60" stroke-width="0.943396"/>
    <circle cx="166.217" cy="77.717" r="4.24528" stroke="#F0CE60" stroke-width="0.943396"/>
    <circle cx="100.217" cy="26.717" r="4.24528" stroke="#F0CE60" stroke-width="0.943396"/>
    <circle cx="74.0842" cy="195.283" r="4.24528" stroke="#F0CE60" stroke-width="0.943396"/>
    <path d="M93.8281 157.017L102.415 153.307C108.776 128.924 133.265 62.8781 174.504 33.6187L166.235 36.693C153.513 44.0786 125.208 65.8253 113.758 93.7278C102.309 121.63 95.701 147.547 93.8281 157.017Z"
          fill="#00736C"/>
    <path d="M161.352 31.0744L170.257 28L174.497 33.6187L166.228 36.7991L161.352 31.0744Z" fill="#00DDCF"/>
    <path d="M70.0738 79.8405C79.2969 86.0952 87.3185 100.866 91.1703 108.04C87.0005 113.234 78.6395 123.263 76.4345 122.246C74.2294 121.228 55.338 97.8627 45.7969 86.0952C46.963 82.9149 60.8507 73.5858 70.0738 79.8405Z"
          fill="#00736C"/>
    <path d="M93.9304 156.911L77.1804 155.533C68.8398 134.265 55.7658 100.937 40.5 90.7593C46.8608 79.204 57.356 77.7198 65.943 86.0948C72.2837 92.2788 81.6329 107.403 85.3434 114.718C88.5237 107.933 101.245 87.0489 116.511 69.1328C132.347 50.5474 150.824 37.1523 161.354 31.0742L166.231 36.7989C162.909 38.9192 150.223 47.4002 132.943 71.5711C115.495 95.9773 99.019 138.041 93.9304 156.911Z"
          fill="#00B3A8"/>
</svg>
